<svg width="20" height="22" viewBox="0 0 20 22" fill="none" xmlns="http://www.w3.org/2000/svg">
<path d="M17.9429 11.7497C18.3431 12.4324 18.6043 13.1874 18.7115 13.9714C18.8187 14.7554 18.7697 15.5528 18.5675 16.3178C18.3652 17.0828 18.0136 17.8002 17.533 18.4288C17.0523 19.0574 16.4521 19.5847 15.7668 19.9803C15.0816 20.376 14.3248 20.6322 13.5401 20.7341C12.7555 20.8361 11.9584 20.7819 11.1947 20.5746C10.4311 20.3673 9.716 20.0109 9.09063 19.5261C8.46526 19.0413 7.94197 18.4376 7.55087 17.7497M17.9429 11.7497C17.1416 10.3829 15.8322 9.38848 14.3004 8.9835C12.7686 8.57853 11.1388 8.79586 9.76671 9.58808C8.39458 10.3803 7.39151 11.6831 6.97638 13.2121C6.56125 14.7412 6.76777 16.3724 7.55087 17.7497M17.9429 11.7497L7.55087 17.7497" stroke="black" stroke-width="1.5"/>
<path d="M7.79287 4.29267L12.8779 1.28767C14.7499 0.181668 17.1439 0.837668 18.2249 2.75467C18.638 3.48816 18.8141 4.33147 18.729 5.16898C18.644 6.00648 18.302 6.79719 17.7499 7.43267M7.79287 4.29267L2.70787 7.29767C0.835874 8.40367 0.193874 10.8537 1.27487 12.7697C1.57695 13.3131 2.00457 13.7764 2.52208 14.121C3.03959 14.4656 3.63199 14.6815 4.24987 14.7507M7.79287 4.29267L9.24987 6.75067" stroke="black" stroke-width="1.5" stroke-linecap="round" stroke-linejoin="round"/>
</svg>
