<svg width="22" height="22" viewBox="0 0 22 22" fill="none" xmlns="http://www.w3.org/2000/svg">
<g clip-path="url(#clip0_372_4065)">
<path d="M4.58333 0.916687H17.4167C18.6318 0.918143 19.7967 1.4015 20.656 2.26072C21.5152 3.11995 21.9985 4.28489 22 5.50002V12.8334C21.9985 14.0485 21.5152 15.2134 20.656 16.0727C19.7967 16.9319 18.6318 17.4152 17.4167 17.4167H11.9167V19.25H15.5833C15.8264 19.25 16.0596 19.3466 16.2315 19.5185C16.4034 19.6904 16.5 19.9236 16.5 20.1667C16.5 20.4098 16.4034 20.643 16.2315 20.8149C16.0596 20.9868 15.8264 21.0834 15.5833 21.0834H6.41667C6.17355 21.0834 5.94039 20.9868 5.76848 20.8149C5.59658 20.643 5.5 20.4098 5.5 20.1667C5.5 19.9236 5.59658 19.6904 5.76848 19.5185C5.94039 19.3466 6.17355 19.25 6.41667 19.25H10.0833V17.4167H4.58333C3.3682 17.4152 2.20326 16.9319 1.34403 16.0727C0.484808 15.2134 0.00145531 14.0485 0 12.8334V5.50002C0.00145531 4.28489 0.484808 3.11995 1.34403 2.26072C2.20326 1.4015 3.3682 0.918143 4.58333 0.916687ZM1.83333 12.8334C1.83333 13.5627 2.12306 14.2622 2.63879 14.7779C3.15451 15.2936 3.85399 15.5834 4.58333 15.5834H17.4167C18.146 15.5834 18.8455 15.2936 19.3612 14.7779C19.8769 14.2622 20.1667 13.5627 20.1667 12.8334V5.50002C20.1667 4.77067 19.8769 4.0712 19.3612 3.55548C18.8455 3.03975 18.146 2.75002 17.4167 2.75002H4.58333C3.85399 2.75002 3.15451 3.03975 2.63879 3.55548C2.12306 4.0712 1.83333 4.77067 1.83333 5.50002V12.8334ZM3.66667 9.16669C3.66667 9.4098 3.76324 9.64296 3.93515 9.81487C4.10706 9.98678 4.34022 10.0834 4.58333 10.0834H7.30125L8.85958 12.4254C8.94358 12.5513 9.05744 12.6545 9.19099 12.7256C9.32455 12.7968 9.47366 12.8338 9.625 12.8334C9.64425 12.8334 9.6635 12.8334 9.68183 12.8334C9.84221 12.8235 9.99718 12.7716 10.1312 12.683C10.2652 12.5943 10.3736 12.472 10.4454 12.3283L12.4887 8.23902L13.4457 9.67544C13.5294 9.80094 13.6428 9.90384 13.7759 9.975C13.9089 10.0462 14.0575 10.0834 14.2083 10.0834H17.4167C17.6598 10.0834 17.8929 9.98678 18.0648 9.81487C18.2368 9.64296 18.3333 9.4098 18.3333 9.16669C18.3333 8.92357 18.2368 8.69041 18.0648 8.51851C17.8929 8.3466 17.6598 8.25002 17.4167 8.25002H14.6987L13.1404 5.90794C13.0522 5.77279 12.9294 5.66369 12.7849 5.59197C12.6403 5.52024 12.4791 5.48849 12.3182 5.50002C12.1578 5.5099 12.0028 5.56176 11.8688 5.65041C11.7348 5.73906 11.6264 5.86138 11.5546 6.0051L9.51133 10.0925L8.55433 8.6561C8.47039 8.53094 8.35687 8.4284 8.22385 8.35757C8.09082 8.28673 7.94238 8.2498 7.79167 8.25002H4.58333C4.34022 8.25002 4.10706 8.3466 3.93515 8.51851C3.76324 8.69041 3.66667 8.92357 3.66667 9.16669Z" fill="black"/>
</g>
<defs>
<clipPath id="clip0_372_4065">
<rect width="22" height="22" fill="white" transform="matrix(-1 0 0 1 22 0)"/>
</clipPath>
</defs>
</svg>
